G04 #@! TF.FileFunction,Copper,L2,Bot,Signal*
%FSLAX46Y46*%
G04 Gerber Fmt 4.6, Leading zero omitted, Abs format (unit mm)*
G04 Created by KiCad (PCBNEW 4.0.0-rc2-1-stable) date Sunday, 29 November 2015 18:47:31*
%MOMM*%
G01*
G04 APERTURE LIST*
%ADD10C,0.100000*%
%ADD11R,2.032000X2.032000*%
%ADD12O,2.032000X2.032000*%
%ADD13R,2.032000X1.727200*%
%ADD14O,2.032000X1.727200*%
%ADD15R,0.900000X0.500000*%
%ADD16C,2.032000*%
%ADD17C,3.100000*%
%ADD18C,0.609600*%
%ADD19C,0.304800*%
%ADD20C,0.254000*%
G04 APERTURE END LIST*
D10*
D11*
X166878000Y-101346000D03*
D12*
X164338000Y-101346000D03*
D13*
X172720000Y-101600000D03*
D14*
X172720000Y-99060000D03*
X172720000Y-96520000D03*
X172720000Y-93980000D03*
X172720000Y-91440000D03*
X172720000Y-88900000D03*
D15*
X146367500Y-90539000D03*
X146367500Y-89039000D03*
D16*
X127000000Y-109220000D03*
X129540000Y-109220000D03*
X132080000Y-109220000D03*
X134620000Y-109220000D03*
X137160000Y-109220000D03*
X139700000Y-109220000D03*
X142240000Y-109220000D03*
X144780000Y-109220000D03*
X147320000Y-109220000D03*
X149860000Y-109220000D03*
X152400000Y-109220000D03*
X154940000Y-109220000D03*
X157480000Y-109220000D03*
X160020000Y-109220000D03*
X162560000Y-109220000D03*
X165100000Y-109220000D03*
X167640000Y-109220000D03*
X170180000Y-109220000D03*
X172720000Y-109220000D03*
X127000000Y-111760000D03*
X129540000Y-111760000D03*
X132080000Y-111760000D03*
X134620000Y-111760000D03*
X137160000Y-111760000D03*
X139700000Y-111760000D03*
X142240000Y-111760000D03*
X144780000Y-111760000D03*
X147320000Y-111760000D03*
X149860000Y-111760000D03*
X152400000Y-111760000D03*
X154940000Y-111760000D03*
X157480000Y-111760000D03*
X160020000Y-111760000D03*
X162560000Y-111760000D03*
X165100000Y-111760000D03*
X167640000Y-111760000D03*
X170180000Y-111760000D03*
X172720000Y-111760000D03*
X127000000Y-114300000D03*
X129540000Y-114300000D03*
X132080000Y-114300000D03*
X134620000Y-114300000D03*
X137160000Y-114300000D03*
X139700000Y-114300000D03*
X142240000Y-114300000D03*
X144780000Y-114300000D03*
X147320000Y-114300000D03*
X149860000Y-114300000D03*
X152400000Y-114300000D03*
X154940000Y-114300000D03*
X157480000Y-114300000D03*
X160020000Y-114300000D03*
X162560000Y-114300000D03*
X165100000Y-114300000D03*
X167640000Y-114300000D03*
X170180000Y-114300000D03*
X172720000Y-114300000D03*
X127000000Y-116840000D03*
X129540000Y-116840000D03*
X132080000Y-116840000D03*
X134620000Y-116840000D03*
X137160000Y-116840000D03*
X139700000Y-116840000D03*
X142240000Y-116840000D03*
X144780000Y-116840000D03*
X147320000Y-116840000D03*
X149860000Y-116840000D03*
X152400000Y-116840000D03*
X154940000Y-116840000D03*
X157480000Y-116840000D03*
X160020000Y-116840000D03*
X162560000Y-116840000D03*
X165100000Y-116840000D03*
X167640000Y-116840000D03*
X170180000Y-116840000D03*
X172720000Y-116840000D03*
X127000000Y-119380000D03*
X129540000Y-119380000D03*
X132080000Y-119380000D03*
X134620000Y-119380000D03*
X137160000Y-119380000D03*
X139700000Y-119380000D03*
X142240000Y-119380000D03*
X144780000Y-119380000D03*
X147320000Y-119380000D03*
X149860000Y-119380000D03*
X152400000Y-119380000D03*
X154940000Y-119380000D03*
X157480000Y-119380000D03*
X160020000Y-119380000D03*
X162560000Y-119380000D03*
X165100000Y-119380000D03*
X167640000Y-119380000D03*
X170180000Y-119380000D03*
X172720000Y-119380000D03*
X127000000Y-121920000D03*
X129540000Y-121920000D03*
X132080000Y-121920000D03*
X134620000Y-121920000D03*
X137160000Y-121920000D03*
X139700000Y-121920000D03*
X142240000Y-121920000D03*
X144780000Y-121920000D03*
X147320000Y-121920000D03*
X149860000Y-121920000D03*
X152400000Y-121920000D03*
X154940000Y-121920000D03*
X157480000Y-121920000D03*
X160020000Y-121920000D03*
X162560000Y-121920000D03*
X165100000Y-121920000D03*
X167640000Y-121920000D03*
X170180000Y-121920000D03*
X172720000Y-121920000D03*
X132080000Y-124460000D03*
X134620000Y-124460000D03*
X137160000Y-124460000D03*
X139700000Y-124460000D03*
X142240000Y-124460000D03*
X144780000Y-124460000D03*
X147320000Y-124460000D03*
X149860000Y-124460000D03*
X152400000Y-124460000D03*
X154940000Y-124460000D03*
X157480000Y-124460000D03*
X160020000Y-124460000D03*
X162560000Y-124460000D03*
X165100000Y-124460000D03*
X167640000Y-124460000D03*
X132080000Y-127000000D03*
X134620000Y-127000000D03*
X137160000Y-127000000D03*
X139700000Y-127000000D03*
X142240000Y-127000000D03*
X144780000Y-127000000D03*
X147320000Y-127000000D03*
X149860000Y-127000000D03*
X152400000Y-127000000D03*
X154940000Y-127000000D03*
X157480000Y-127000000D03*
X160020000Y-127000000D03*
X162560000Y-127000000D03*
X165100000Y-127000000D03*
X167640000Y-127000000D03*
D17*
X171450000Y-125730000D03*
X128270000Y-125730000D03*
X171450000Y-82550000D03*
X128270000Y-82550000D03*
D16*
X172720000Y-106680000D03*
X170180000Y-106680000D03*
X167640000Y-106680000D03*
X165100000Y-106680000D03*
X162560000Y-106680000D03*
X160020000Y-106680000D03*
X157480000Y-106680000D03*
X154940000Y-106680000D03*
X152400000Y-106680000D03*
X149860000Y-106680000D03*
X147320000Y-106680000D03*
X144780000Y-106680000D03*
X142240000Y-106680000D03*
X139700000Y-106680000D03*
X137160000Y-106680000D03*
X134620000Y-106680000D03*
X132080000Y-106680000D03*
X129540000Y-106680000D03*
X127000000Y-106680000D03*
D18*
X131082000Y-98522000D03*
X136250000Y-88550000D03*
X130950000Y-100800000D03*
X138540000Y-93630000D03*
X138780000Y-88880000D03*
X136906278Y-98100000D03*
X161607500Y-102489000D03*
X142105808Y-103299530D03*
X149352000Y-102362000D03*
X144995828Y-101386544D03*
X165470000Y-88850000D03*
X134780000Y-98920000D03*
X146367500Y-87820500D03*
X142231220Y-93218000D03*
X161671000Y-89217500D03*
X162596192Y-89928221D03*
X146512908Y-93822908D03*
X162930000Y-91520000D03*
D19*
X136250000Y-88550000D02*
X131082000Y-93718000D01*
X131082000Y-93718000D02*
X131082000Y-98522000D01*
X127010000Y-106670000D02*
X127000000Y-106680000D01*
X129540000Y-106680000D02*
X130600000Y-105620000D01*
X130600000Y-105620000D02*
X130600000Y-101150000D01*
X130600000Y-101150000D02*
X130645201Y-101104799D01*
X130645201Y-101104799D02*
X130950000Y-100800000D01*
X131254799Y-100495201D02*
X130950000Y-100800000D01*
X133650000Y-98100000D02*
X131254799Y-100495201D01*
X136906278Y-98100000D02*
X133650000Y-98100000D01*
X138540000Y-93630000D02*
X136906278Y-95263722D01*
X136906278Y-95263722D02*
X136906278Y-98100000D01*
X138780000Y-88880000D02*
X138780000Y-93390000D01*
X138780000Y-93390000D02*
X138540000Y-93630000D01*
X142105808Y-103299530D02*
X136906278Y-98100000D01*
X166880000Y-99300000D02*
X168210000Y-99300000D01*
X168210000Y-99300000D02*
X170510000Y-101600000D01*
X170510000Y-101600000D02*
X172720000Y-101600000D01*
X161607500Y-102489000D02*
X161607500Y-100812500D01*
X161607500Y-100812500D02*
X163120000Y-99300000D01*
X163120000Y-99300000D02*
X166880000Y-99300000D01*
X166878000Y-100025200D02*
X166880000Y-100023200D01*
X166878000Y-101346000D02*
X166878000Y-100025200D01*
X166880000Y-100023200D02*
X166880000Y-99300000D01*
X172720000Y-101600000D02*
X172720000Y-106680000D01*
X142105808Y-103299530D02*
X152463500Y-103299530D01*
X152463500Y-103299530D02*
X160796970Y-103299530D01*
X152400000Y-103363030D02*
X152463500Y-103299530D01*
X152400000Y-106680000D02*
X152400000Y-103363030D01*
X160796970Y-103299530D02*
X161607500Y-102489000D01*
X129540000Y-106680000D02*
X129540000Y-106527600D01*
X144995828Y-101386544D02*
X148376544Y-101386544D01*
X148376544Y-101386544D02*
X149047201Y-102057201D01*
X165050089Y-88430089D02*
X150899911Y-88430089D01*
X150899911Y-88430089D02*
X144995828Y-94334172D01*
X144995828Y-94334172D02*
X144995828Y-100955492D01*
X165470000Y-88850000D02*
X165050089Y-88430089D01*
X144995828Y-100955492D02*
X144995828Y-101386544D01*
X149047201Y-102057201D02*
X149352000Y-102362000D01*
D20*
X135084799Y-99224799D02*
X134780000Y-98920000D01*
X140200000Y-104340000D02*
X135084799Y-99224799D01*
X144980000Y-104340000D02*
X140200000Y-104340000D01*
X147320000Y-106680000D02*
X144980000Y-104340000D01*
X146367500Y-87820500D02*
X146367500Y-89039000D01*
X164338000Y-101155500D02*
X164338000Y-105918000D01*
X164338000Y-105918000D02*
X165100000Y-106680000D01*
X142536019Y-92913201D02*
X142231220Y-93218000D01*
X144910220Y-90539000D02*
X142536019Y-92913201D01*
X146367500Y-90539000D02*
X144910220Y-90539000D01*
X172720000Y-91440000D02*
X170751500Y-93408500D01*
X170751500Y-93408500D02*
X167082684Y-93408500D01*
X167082684Y-93408500D02*
X162891684Y-89217500D01*
X162891684Y-89217500D02*
X162102052Y-89217500D01*
X162102052Y-89217500D02*
X161671000Y-89217500D01*
X172720000Y-91440000D02*
X172567600Y-91440000D01*
X157480000Y-106680000D02*
X157480000Y-106527600D01*
X166647971Y-93980000D02*
X162900991Y-90233020D01*
X162900991Y-90233020D02*
X162596192Y-89928221D01*
X172720000Y-93980000D02*
X166647971Y-93980000D01*
X172720000Y-93980000D02*
X172872400Y-93980000D01*
X160020000Y-106680000D02*
X160020000Y-106310000D01*
X162560000Y-106680000D02*
X162560000Y-106527600D01*
X167640000Y-106527600D02*
X167640000Y-106680000D01*
X162930000Y-91520000D02*
X160373500Y-88963500D01*
X160373500Y-88963500D02*
X151372316Y-88963500D01*
X151372316Y-88963500D02*
X146817707Y-93518109D01*
X146817707Y-93518109D02*
X146512908Y-93822908D01*
G36*
X174144000Y-88898145D02*
X174049629Y-88423712D01*
X173779834Y-88019935D01*
X173376057Y-87750140D01*
X172899769Y-87655400D01*
X172540231Y-87655400D01*
X172063943Y-87750140D01*
X171660166Y-88019935D01*
X171390371Y-88423712D01*
X171295631Y-88900000D01*
X171390371Y-89376288D01*
X171660166Y-89780065D01*
X172063943Y-90049860D01*
X172540231Y-90144600D01*
X172899769Y-90144600D01*
X173376057Y-90049860D01*
X173779834Y-89780065D01*
X174049629Y-89376288D01*
X174144000Y-88901855D01*
X174144000Y-91438145D01*
X174049629Y-90963712D01*
X173779834Y-90559935D01*
X173376057Y-90290140D01*
X172899769Y-90195400D01*
X172540231Y-90195400D01*
X172063943Y-90290140D01*
X171660166Y-90559935D01*
X171390371Y-90963712D01*
X171295631Y-91440000D01*
X171390371Y-91916288D01*
X171444413Y-91997167D01*
X170541080Y-92900500D01*
X167293104Y-92900500D01*
X163356093Y-88963489D01*
X164784100Y-88963489D01*
X164784081Y-88985816D01*
X164888268Y-89237967D01*
X165081018Y-89431054D01*
X165332987Y-89535681D01*
X165605816Y-89535919D01*
X165857967Y-89431732D01*
X166051054Y-89238982D01*
X166155681Y-88987013D01*
X166155919Y-88714184D01*
X166051732Y-88462033D01*
X165858982Y-88268946D01*
X165607013Y-88164319D01*
X165538601Y-88164259D01*
X165427260Y-88052918D01*
X165254212Y-87937292D01*
X165050089Y-87896689D01*
X150899911Y-87896689D01*
X150695787Y-87937292D01*
X150522740Y-88052918D01*
X144618657Y-93957001D01*
X144503031Y-94130049D01*
X144462428Y-94334172D01*
X144462428Y-100949991D01*
X144414774Y-100997562D01*
X144310147Y-101249531D01*
X144309909Y-101522360D01*
X144414096Y-101774511D01*
X144606846Y-101967598D01*
X144858815Y-102072225D01*
X145131644Y-102072463D01*
X145383795Y-101968276D01*
X145432212Y-101919944D01*
X148155602Y-101919944D01*
X148666140Y-102430482D01*
X148666081Y-102497816D01*
X148770268Y-102749967D01*
X148963018Y-102943054D01*
X149214987Y-103047681D01*
X149487816Y-103047919D01*
X149739967Y-102943732D01*
X149933054Y-102750982D01*
X150037681Y-102499013D01*
X150037919Y-102226184D01*
X149933732Y-101974033D01*
X149740982Y-101780946D01*
X149489013Y-101676319D01*
X149420601Y-101676259D01*
X148753715Y-101009373D01*
X148580667Y-100893747D01*
X148376544Y-100853144D01*
X145529228Y-100853144D01*
X145529228Y-94555114D01*
X145914303Y-94170039D01*
X145931176Y-94210875D01*
X146123926Y-94403962D01*
X146375895Y-94508589D01*
X146648724Y-94508827D01*
X146900875Y-94404640D01*
X147093962Y-94211890D01*
X147198589Y-93959921D01*
X147198680Y-93855556D01*
X151582736Y-89471500D01*
X160163080Y-89471500D01*
X162244171Y-91552591D01*
X162244081Y-91655816D01*
X162348268Y-91907967D01*
X162541018Y-92101054D01*
X162792987Y-92205681D01*
X163065816Y-92205919D01*
X163317967Y-92101732D01*
X163511054Y-91908982D01*
X163613006Y-91663455D01*
X166288761Y-94339210D01*
X166453568Y-94449331D01*
X166647971Y-94488000D01*
X171411560Y-94488000D01*
X171660166Y-94860065D01*
X172063943Y-95129860D01*
X172540231Y-95224600D01*
X172899769Y-95224600D01*
X173376057Y-95129860D01*
X173779834Y-94860065D01*
X174049629Y-94456288D01*
X174144000Y-93981855D01*
X174144000Y-96518145D01*
X174049629Y-96043712D01*
X173779834Y-95639935D01*
X173376057Y-95370140D01*
X172899769Y-95275400D01*
X172540231Y-95275400D01*
X172063943Y-95370140D01*
X171660166Y-95639935D01*
X171390371Y-96043712D01*
X171295631Y-96520000D01*
X171390371Y-96996288D01*
X171660166Y-97400065D01*
X172063943Y-97669860D01*
X172540231Y-97764600D01*
X172899769Y-97764600D01*
X173376057Y-97669860D01*
X173779834Y-97400065D01*
X174049629Y-96996288D01*
X174144000Y-96521855D01*
X174144000Y-99058145D01*
X174049629Y-98583712D01*
X173779834Y-98179935D01*
X173376057Y-97910140D01*
X172899769Y-97815400D01*
X172540231Y-97815400D01*
X172063943Y-97910140D01*
X171660166Y-98179935D01*
X171390371Y-98583712D01*
X171295631Y-99060000D01*
X171390371Y-99536288D01*
X171660166Y-99940065D01*
X171901621Y-100101400D01*
X171577691Y-100101400D01*
X171344302Y-100198073D01*
X171165673Y-100376701D01*
X171069000Y-100610090D01*
X171069000Y-101314250D01*
X171227750Y-101473000D01*
X172593000Y-101473000D01*
X172593000Y-101453000D01*
X172847000Y-101453000D01*
X172847000Y-101473000D01*
X172867000Y-101473000D01*
X172867000Y-101727000D01*
X172847000Y-101727000D01*
X172847000Y-102939850D01*
X173005750Y-103098600D01*
X173862309Y-103098600D01*
X174095698Y-103001927D01*
X174144000Y-102953625D01*
X174144000Y-105283000D01*
X173617229Y-105283000D01*
X173603880Y-105247378D01*
X172988358Y-105018184D01*
X172331981Y-105041986D01*
X171836120Y-105247378D01*
X171822771Y-105283000D01*
X170180647Y-105283000D01*
X169903339Y-105282758D01*
X169902753Y-105283000D01*
X167640647Y-105283000D01*
X167363339Y-105282758D01*
X167362753Y-105283000D01*
X165100512Y-105283000D01*
X164846000Y-105282778D01*
X164846000Y-102669322D01*
X164872609Y-102664029D01*
X165227000Y-102427232D01*
X165227000Y-102488309D01*
X165323673Y-102721698D01*
X165502301Y-102900327D01*
X165735690Y-102997000D01*
X166592250Y-102997000D01*
X166751000Y-102838250D01*
X166751000Y-101473000D01*
X167005000Y-101473000D01*
X167005000Y-102838250D01*
X167163750Y-102997000D01*
X168020310Y-102997000D01*
X168253699Y-102900327D01*
X168432327Y-102721698D01*
X168529000Y-102488309D01*
X168529000Y-101885750D01*
X171069000Y-101885750D01*
X171069000Y-102589910D01*
X171165673Y-102823299D01*
X171344302Y-103001927D01*
X171577691Y-103098600D01*
X172434250Y-103098600D01*
X172593000Y-102939850D01*
X172593000Y-101727000D01*
X171227750Y-101727000D01*
X171069000Y-101885750D01*
X168529000Y-101885750D01*
X168529000Y-101631750D01*
X168370250Y-101473000D01*
X167005000Y-101473000D01*
X166751000Y-101473000D01*
X166731000Y-101473000D01*
X166731000Y-101219000D01*
X166751000Y-101219000D01*
X166751000Y-99853750D01*
X167005000Y-99853750D01*
X167005000Y-101219000D01*
X168370250Y-101219000D01*
X168529000Y-101060250D01*
X168529000Y-100203691D01*
X168432327Y-99970302D01*
X168253699Y-99791673D01*
X168020310Y-99695000D01*
X167163750Y-99695000D01*
X167005000Y-99853750D01*
X166751000Y-99853750D01*
X166592250Y-99695000D01*
X165735690Y-99695000D01*
X165502301Y-99791673D01*
X165323673Y-99970302D01*
X165227000Y-100203691D01*
X165227000Y-100264768D01*
X164872609Y-100027971D01*
X164338000Y-99921631D01*
X163803391Y-100027971D01*
X163350172Y-100330803D01*
X163047340Y-100784022D01*
X162941000Y-101318631D01*
X162941000Y-101373369D01*
X163047340Y-101907978D01*
X163350172Y-102361197D01*
X163803391Y-102664029D01*
X163830000Y-102669322D01*
X163830000Y-105283000D01*
X162560647Y-105283000D01*
X162283339Y-105282758D01*
X162282753Y-105283000D01*
X160020647Y-105283000D01*
X159743339Y-105282758D01*
X159742753Y-105283000D01*
X157480647Y-105283000D01*
X157203339Y-105282758D01*
X157202753Y-105283000D01*
X154940647Y-105283000D01*
X154663339Y-105282758D01*
X154662753Y-105283000D01*
X153297229Y-105283000D01*
X153283880Y-105247378D01*
X152668358Y-105018184D01*
X152011981Y-105041986D01*
X151516120Y-105247378D01*
X151502771Y-105283000D01*
X149860647Y-105283000D01*
X149583339Y-105282758D01*
X149582753Y-105283000D01*
X147320647Y-105283000D01*
X147043339Y-105282758D01*
X147042753Y-105283000D01*
X146641420Y-105283000D01*
X145339210Y-103980790D01*
X145174403Y-103870669D01*
X144980000Y-103832000D01*
X140410421Y-103832000D01*
X135465829Y-98887409D01*
X135465919Y-98784184D01*
X135361732Y-98532033D01*
X135168982Y-98338946D01*
X134917013Y-98234319D01*
X134644184Y-98234081D01*
X134392033Y-98338268D01*
X134198946Y-98531018D01*
X134094319Y-98782987D01*
X134094081Y-99055816D01*
X134198268Y-99307967D01*
X134391018Y-99501054D01*
X134642987Y-99605681D01*
X134747352Y-99605772D01*
X139840790Y-104699211D01*
X140005597Y-104809331D01*
X140200000Y-104848000D01*
X144769580Y-104848000D01*
X145204580Y-105283000D01*
X144780647Y-105283000D01*
X144503339Y-105282758D01*
X144502753Y-105283000D01*
X142240647Y-105283000D01*
X141963339Y-105282758D01*
X141962753Y-105283000D01*
X139700647Y-105283000D01*
X139423339Y-105282758D01*
X139422753Y-105283000D01*
X137160647Y-105283000D01*
X136883339Y-105282758D01*
X136882753Y-105283000D01*
X134620647Y-105283000D01*
X134343339Y-105282758D01*
X134342753Y-105283000D01*
X132080647Y-105283000D01*
X131803339Y-105282758D01*
X131802753Y-105283000D01*
X130437229Y-105283000D01*
X130423880Y-105247378D01*
X129808358Y-105018184D01*
X129151981Y-105041986D01*
X128656120Y-105247378D01*
X128642771Y-105283000D01*
X127000647Y-105283000D01*
X126723339Y-105282758D01*
X126722753Y-105283000D01*
X125576000Y-105283000D01*
X125576000Y-98657816D01*
X130396081Y-98657816D01*
X130500268Y-98909967D01*
X130693018Y-99103054D01*
X130944987Y-99207681D01*
X131217816Y-99207919D01*
X131469967Y-99103732D01*
X131663054Y-98910982D01*
X131767681Y-98659013D01*
X131767919Y-98386184D01*
X131663732Y-98134033D01*
X131615400Y-98085616D01*
X131615400Y-93938942D01*
X132200526Y-93353816D01*
X141545301Y-93353816D01*
X141649488Y-93605967D01*
X141842238Y-93799054D01*
X142094207Y-93903681D01*
X142367036Y-93903919D01*
X142619187Y-93799732D01*
X142812274Y-93606982D01*
X142916901Y-93355013D01*
X142916992Y-93250648D01*
X145120640Y-91047000D01*
X145630768Y-91047000D01*
X145639046Y-91059865D01*
X145766366Y-91146859D01*
X145917500Y-91177464D01*
X146817500Y-91177464D01*
X146958690Y-91150897D01*
X147088365Y-91067454D01*
X147175359Y-90940134D01*
X147205964Y-90789000D01*
X147205964Y-90289000D01*
X147179397Y-90147810D01*
X147095954Y-90018135D01*
X146968634Y-89931141D01*
X146817500Y-89900536D01*
X145917500Y-89900536D01*
X145776310Y-89927103D01*
X145646635Y-90010546D01*
X145632659Y-90031000D01*
X144910220Y-90031000D01*
X144748070Y-90063254D01*
X144715816Y-90069669D01*
X144551010Y-90179790D01*
X142198629Y-92532171D01*
X142095404Y-92532081D01*
X141843253Y-92636268D01*
X141650166Y-92829018D01*
X141545539Y-93080987D01*
X141545301Y-93353816D01*
X132200526Y-93353816D01*
X136318482Y-89235860D01*
X136385816Y-89235919D01*
X136637967Y-89131732D01*
X136831054Y-88938982D01*
X136893332Y-88789000D01*
X145529036Y-88789000D01*
X145529036Y-89289000D01*
X145555603Y-89430190D01*
X145639046Y-89559865D01*
X145766366Y-89646859D01*
X145917500Y-89677464D01*
X146817500Y-89677464D01*
X146958690Y-89650897D01*
X147088365Y-89567454D01*
X147175359Y-89440134D01*
X147205964Y-89289000D01*
X147205964Y-88789000D01*
X147179397Y-88647810D01*
X147095954Y-88518135D01*
X146968634Y-88431141D01*
X146875500Y-88412281D01*
X146875500Y-88282408D01*
X146948554Y-88209482D01*
X147053181Y-87957513D01*
X147053419Y-87684684D01*
X146949232Y-87432533D01*
X146756482Y-87239446D01*
X146504513Y-87134819D01*
X146231684Y-87134581D01*
X145979533Y-87238768D01*
X145786446Y-87431518D01*
X145681819Y-87683487D01*
X145681581Y-87956316D01*
X145785768Y-88208467D01*
X145859500Y-88282328D01*
X145859500Y-88411450D01*
X145776310Y-88427103D01*
X145646635Y-88510546D01*
X145559641Y-88637866D01*
X145529036Y-88789000D01*
X136893332Y-88789000D01*
X136935681Y-88687013D01*
X136935919Y-88414184D01*
X136831732Y-88162033D01*
X136638982Y-87968946D01*
X136387013Y-87864319D01*
X136114184Y-87864081D01*
X135862033Y-87968268D01*
X135668946Y-88161018D01*
X135564319Y-88412987D01*
X135564259Y-88481399D01*
X130704829Y-93340829D01*
X130589203Y-93513877D01*
X130548600Y-93718000D01*
X130548600Y-98085447D01*
X130500946Y-98133018D01*
X130396319Y-98384987D01*
X130396081Y-98657816D01*
X125576000Y-98657816D01*
X125576000Y-85725000D01*
X174144000Y-85725000D01*
X174144000Y-88898145D01*
X174144000Y-88898145D01*
G37*
X174144000Y-88898145D02*
X174049629Y-88423712D01*
X173779834Y-88019935D01*
X173376057Y-87750140D01*
X172899769Y-87655400D01*
X172540231Y-87655400D01*
X172063943Y-87750140D01*
X171660166Y-88019935D01*
X171390371Y-88423712D01*
X171295631Y-88900000D01*
X171390371Y-89376288D01*
X171660166Y-89780065D01*
X172063943Y-90049860D01*
X172540231Y-90144600D01*
X172899769Y-90144600D01*
X173376057Y-90049860D01*
X173779834Y-89780065D01*
X174049629Y-89376288D01*
X174144000Y-88901855D01*
X174144000Y-91438145D01*
X174049629Y-90963712D01*
X173779834Y-90559935D01*
X173376057Y-90290140D01*
X172899769Y-90195400D01*
X172540231Y-90195400D01*
X172063943Y-90290140D01*
X171660166Y-90559935D01*
X171390371Y-90963712D01*
X171295631Y-91440000D01*
X171390371Y-91916288D01*
X171444413Y-91997167D01*
X170541080Y-92900500D01*
X167293104Y-92900500D01*
X163356093Y-88963489D01*
X164784100Y-88963489D01*
X164784081Y-88985816D01*
X164888268Y-89237967D01*
X165081018Y-89431054D01*
X165332987Y-89535681D01*
X165605816Y-89535919D01*
X165857967Y-89431732D01*
X166051054Y-89238982D01*
X166155681Y-88987013D01*
X166155919Y-88714184D01*
X166051732Y-88462033D01*
X165858982Y-88268946D01*
X165607013Y-88164319D01*
X165538601Y-88164259D01*
X165427260Y-88052918D01*
X165254212Y-87937292D01*
X165050089Y-87896689D01*
X150899911Y-87896689D01*
X150695787Y-87937292D01*
X150522740Y-88052918D01*
X144618657Y-93957001D01*
X144503031Y-94130049D01*
X144462428Y-94334172D01*
X144462428Y-100949991D01*
X144414774Y-100997562D01*
X144310147Y-101249531D01*
X144309909Y-101522360D01*
X144414096Y-101774511D01*
X144606846Y-101967598D01*
X144858815Y-102072225D01*
X145131644Y-102072463D01*
X145383795Y-101968276D01*
X145432212Y-101919944D01*
X148155602Y-101919944D01*
X148666140Y-102430482D01*
X148666081Y-102497816D01*
X148770268Y-102749967D01*
X148963018Y-102943054D01*
X149214987Y-103047681D01*
X149487816Y-103047919D01*
X149739967Y-102943732D01*
X149933054Y-102750982D01*
X150037681Y-102499013D01*
X150037919Y-102226184D01*
X149933732Y-101974033D01*
X149740982Y-101780946D01*
X149489013Y-101676319D01*
X149420601Y-101676259D01*
X148753715Y-101009373D01*
X148580667Y-100893747D01*
X148376544Y-100853144D01*
X145529228Y-100853144D01*
X145529228Y-94555114D01*
X145914303Y-94170039D01*
X145931176Y-94210875D01*
X146123926Y-94403962D01*
X146375895Y-94508589D01*
X146648724Y-94508827D01*
X146900875Y-94404640D01*
X147093962Y-94211890D01*
X147198589Y-93959921D01*
X147198680Y-93855556D01*
X151582736Y-89471500D01*
X160163080Y-89471500D01*
X162244171Y-91552591D01*
X162244081Y-91655816D01*
X162348268Y-91907967D01*
X162541018Y-92101054D01*
X162792987Y-92205681D01*
X163065816Y-92205919D01*
X163317967Y-92101732D01*
X163511054Y-91908982D01*
X163613006Y-91663455D01*
X166288761Y-94339210D01*
X166453568Y-94449331D01*
X166647971Y-94488000D01*
X171411560Y-94488000D01*
X171660166Y-94860065D01*
X172063943Y-95129860D01*
X172540231Y-95224600D01*
X172899769Y-95224600D01*
X173376057Y-95129860D01*
X173779834Y-94860065D01*
X174049629Y-94456288D01*
X174144000Y-93981855D01*
X174144000Y-96518145D01*
X174049629Y-96043712D01*
X173779834Y-95639935D01*
X173376057Y-95370140D01*
X172899769Y-95275400D01*
X172540231Y-95275400D01*
X172063943Y-95370140D01*
X171660166Y-95639935D01*
X171390371Y-96043712D01*
X171295631Y-96520000D01*
X171390371Y-96996288D01*
X171660166Y-97400065D01*
X172063943Y-97669860D01*
X172540231Y-97764600D01*
X172899769Y-97764600D01*
X173376057Y-97669860D01*
X173779834Y-97400065D01*
X174049629Y-96996288D01*
X174144000Y-96521855D01*
X174144000Y-99058145D01*
X174049629Y-98583712D01*
X173779834Y-98179935D01*
X173376057Y-97910140D01*
X172899769Y-97815400D01*
X172540231Y-97815400D01*
X172063943Y-97910140D01*
X171660166Y-98179935D01*
X171390371Y-98583712D01*
X171295631Y-99060000D01*
X171390371Y-99536288D01*
X171660166Y-99940065D01*
X171901621Y-100101400D01*
X171577691Y-100101400D01*
X171344302Y-100198073D01*
X171165673Y-100376701D01*
X171069000Y-100610090D01*
X171069000Y-101314250D01*
X171227750Y-101473000D01*
X172593000Y-101473000D01*
X172593000Y-101453000D01*
X172847000Y-101453000D01*
X172847000Y-101473000D01*
X172867000Y-101473000D01*
X172867000Y-101727000D01*
X172847000Y-101727000D01*
X172847000Y-102939850D01*
X173005750Y-103098600D01*
X173862309Y-103098600D01*
X174095698Y-103001927D01*
X174144000Y-102953625D01*
X174144000Y-105283000D01*
X173617229Y-105283000D01*
X173603880Y-105247378D01*
X172988358Y-105018184D01*
X172331981Y-105041986D01*
X171836120Y-105247378D01*
X171822771Y-105283000D01*
X170180647Y-105283000D01*
X169903339Y-105282758D01*
X169902753Y-105283000D01*
X167640647Y-105283000D01*
X167363339Y-105282758D01*
X167362753Y-105283000D01*
X165100512Y-105283000D01*
X164846000Y-105282778D01*
X164846000Y-102669322D01*
X164872609Y-102664029D01*
X165227000Y-102427232D01*
X165227000Y-102488309D01*
X165323673Y-102721698D01*
X165502301Y-102900327D01*
X165735690Y-102997000D01*
X166592250Y-102997000D01*
X166751000Y-102838250D01*
X166751000Y-101473000D01*
X167005000Y-101473000D01*
X167005000Y-102838250D01*
X167163750Y-102997000D01*
X168020310Y-102997000D01*
X168253699Y-102900327D01*
X168432327Y-102721698D01*
X168529000Y-102488309D01*
X168529000Y-101885750D01*
X171069000Y-101885750D01*
X171069000Y-102589910D01*
X171165673Y-102823299D01*
X171344302Y-103001927D01*
X171577691Y-103098600D01*
X172434250Y-103098600D01*
X172593000Y-102939850D01*
X172593000Y-101727000D01*
X171227750Y-101727000D01*
X171069000Y-101885750D01*
X168529000Y-101885750D01*
X168529000Y-101631750D01*
X168370250Y-101473000D01*
X167005000Y-101473000D01*
X166751000Y-101473000D01*
X166731000Y-101473000D01*
X166731000Y-101219000D01*
X166751000Y-101219000D01*
X166751000Y-99853750D01*
X167005000Y-99853750D01*
X167005000Y-101219000D01*
X168370250Y-101219000D01*
X168529000Y-101060250D01*
X168529000Y-100203691D01*
X168432327Y-99970302D01*
X168253699Y-99791673D01*
X168020310Y-99695000D01*
X167163750Y-99695000D01*
X167005000Y-99853750D01*
X166751000Y-99853750D01*
X166592250Y-99695000D01*
X165735690Y-99695000D01*
X165502301Y-99791673D01*
X165323673Y-99970302D01*
X165227000Y-100203691D01*
X165227000Y-100264768D01*
X164872609Y-100027971D01*
X164338000Y-99921631D01*
X163803391Y-100027971D01*
X163350172Y-100330803D01*
X163047340Y-100784022D01*
X162941000Y-101318631D01*
X162941000Y-101373369D01*
X163047340Y-101907978D01*
X163350172Y-102361197D01*
X163803391Y-102664029D01*
X163830000Y-102669322D01*
X163830000Y-105283000D01*
X162560647Y-105283000D01*
X162283339Y-105282758D01*
X162282753Y-105283000D01*
X160020647Y-105283000D01*
X159743339Y-105282758D01*
X159742753Y-105283000D01*
X157480647Y-105283000D01*
X157203339Y-105282758D01*
X157202753Y-105283000D01*
X154940647Y-105283000D01*
X154663339Y-105282758D01*
X154662753Y-105283000D01*
X153297229Y-105283000D01*
X153283880Y-105247378D01*
X152668358Y-105018184D01*
X152011981Y-105041986D01*
X151516120Y-105247378D01*
X151502771Y-105283000D01*
X149860647Y-105283000D01*
X149583339Y-105282758D01*
X149582753Y-105283000D01*
X147320647Y-105283000D01*
X147043339Y-105282758D01*
X147042753Y-105283000D01*
X146641420Y-105283000D01*
X145339210Y-103980790D01*
X145174403Y-103870669D01*
X144980000Y-103832000D01*
X140410421Y-103832000D01*
X135465829Y-98887409D01*
X135465919Y-98784184D01*
X135361732Y-98532033D01*
X135168982Y-98338946D01*
X134917013Y-98234319D01*
X134644184Y-98234081D01*
X134392033Y-98338268D01*
X134198946Y-98531018D01*
X134094319Y-98782987D01*
X134094081Y-99055816D01*
X134198268Y-99307967D01*
X134391018Y-99501054D01*
X134642987Y-99605681D01*
X134747352Y-99605772D01*
X139840790Y-104699211D01*
X140005597Y-104809331D01*
X140200000Y-104848000D01*
X144769580Y-104848000D01*
X145204580Y-105283000D01*
X144780647Y-105283000D01*
X144503339Y-105282758D01*
X144502753Y-105283000D01*
X142240647Y-105283000D01*
X141963339Y-105282758D01*
X141962753Y-105283000D01*
X139700647Y-105283000D01*
X139423339Y-105282758D01*
X139422753Y-105283000D01*
X137160647Y-105283000D01*
X136883339Y-105282758D01*
X136882753Y-105283000D01*
X134620647Y-105283000D01*
X134343339Y-105282758D01*
X134342753Y-105283000D01*
X132080647Y-105283000D01*
X131803339Y-105282758D01*
X131802753Y-105283000D01*
X130437229Y-105283000D01*
X130423880Y-105247378D01*
X129808358Y-105018184D01*
X129151981Y-105041986D01*
X128656120Y-105247378D01*
X128642771Y-105283000D01*
X127000647Y-105283000D01*
X126723339Y-105282758D01*
X126722753Y-105283000D01*
X125576000Y-105283000D01*
X125576000Y-98657816D01*
X130396081Y-98657816D01*
X130500268Y-98909967D01*
X130693018Y-99103054D01*
X130944987Y-99207681D01*
X131217816Y-99207919D01*
X131469967Y-99103732D01*
X131663054Y-98910982D01*
X131767681Y-98659013D01*
X131767919Y-98386184D01*
X131663732Y-98134033D01*
X131615400Y-98085616D01*
X131615400Y-93938942D01*
X132200526Y-93353816D01*
X141545301Y-93353816D01*
X141649488Y-93605967D01*
X141842238Y-93799054D01*
X142094207Y-93903681D01*
X142367036Y-93903919D01*
X142619187Y-93799732D01*
X142812274Y-93606982D01*
X142916901Y-93355013D01*
X142916992Y-93250648D01*
X145120640Y-91047000D01*
X145630768Y-91047000D01*
X145639046Y-91059865D01*
X145766366Y-91146859D01*
X145917500Y-91177464D01*
X146817500Y-91177464D01*
X146958690Y-91150897D01*
X147088365Y-91067454D01*
X147175359Y-90940134D01*
X147205964Y-90789000D01*
X147205964Y-90289000D01*
X147179397Y-90147810D01*
X147095954Y-90018135D01*
X146968634Y-89931141D01*
X146817500Y-89900536D01*
X145917500Y-89900536D01*
X145776310Y-89927103D01*
X145646635Y-90010546D01*
X145632659Y-90031000D01*
X144910220Y-90031000D01*
X144748070Y-90063254D01*
X144715816Y-90069669D01*
X144551010Y-90179790D01*
X142198629Y-92532171D01*
X142095404Y-92532081D01*
X141843253Y-92636268D01*
X141650166Y-92829018D01*
X141545539Y-93080987D01*
X141545301Y-93353816D01*
X132200526Y-93353816D01*
X136318482Y-89235860D01*
X136385816Y-89235919D01*
X136637967Y-89131732D01*
X136831054Y-88938982D01*
X136893332Y-88789000D01*
X145529036Y-88789000D01*
X145529036Y-89289000D01*
X145555603Y-89430190D01*
X145639046Y-89559865D01*
X145766366Y-89646859D01*
X145917500Y-89677464D01*
X146817500Y-89677464D01*
X146958690Y-89650897D01*
X147088365Y-89567454D01*
X147175359Y-89440134D01*
X147205964Y-89289000D01*
X147205964Y-88789000D01*
X147179397Y-88647810D01*
X147095954Y-88518135D01*
X146968634Y-88431141D01*
X146875500Y-88412281D01*
X146875500Y-88282408D01*
X146948554Y-88209482D01*
X147053181Y-87957513D01*
X147053419Y-87684684D01*
X146949232Y-87432533D01*
X146756482Y-87239446D01*
X146504513Y-87134819D01*
X146231684Y-87134581D01*
X145979533Y-87238768D01*
X145786446Y-87431518D01*
X145681819Y-87683487D01*
X145681581Y-87956316D01*
X145785768Y-88208467D01*
X145859500Y-88282328D01*
X145859500Y-88411450D01*
X145776310Y-88427103D01*
X145646635Y-88510546D01*
X145559641Y-88637866D01*
X145529036Y-88789000D01*
X136893332Y-88789000D01*
X136935681Y-88687013D01*
X136935919Y-88414184D01*
X136831732Y-88162033D01*
X136638982Y-87968946D01*
X136387013Y-87864319D01*
X136114184Y-87864081D01*
X135862033Y-87968268D01*
X135668946Y-88161018D01*
X135564319Y-88412987D01*
X135564259Y-88481399D01*
X130704829Y-93340829D01*
X130589203Y-93513877D01*
X130548600Y-93718000D01*
X130548600Y-98085447D01*
X130500946Y-98133018D01*
X130396319Y-98384987D01*
X130396081Y-98657816D01*
X125576000Y-98657816D01*
X125576000Y-85725000D01*
X174144000Y-85725000D01*
X174144000Y-88898145D01*
M02*
