G04 #@! TF.FileFunction,Legend,Top*
%FSLAX46Y46*%
G04 Gerber Fmt 4.6, Leading zero omitted, Abs format (unit mm)*
G04 Created by KiCad (PCBNEW 4.0.0-rc2-1-stable) date Sunday, 29 November 2015 18:47:31*
%MOMM*%
G01*
G04 APERTURE LIST*
%ADD10C,0.100000*%
%ADD11C,0.200000*%
%ADD12C,0.150000*%
G04 APERTURE END LIST*
D10*
D11*
X173990000Y-107950000D02*
X125730000Y-107950000D01*
X173990000Y-105410000D02*
X173990000Y-107950000D01*
X125730000Y-105410000D02*
X173990000Y-105410000D01*
X125730000Y-107950000D02*
X125730000Y-105410000D01*
D12*
X171958096Y-103576500D02*
X171862858Y-103528881D01*
X171720001Y-103528881D01*
X171577143Y-103576500D01*
X171481905Y-103671738D01*
X171434286Y-103766976D01*
X171386667Y-103957452D01*
X171386667Y-104100310D01*
X171434286Y-104290786D01*
X171481905Y-104386024D01*
X171577143Y-104481262D01*
X171720001Y-104528881D01*
X171815239Y-104528881D01*
X171958096Y-104481262D01*
X172005715Y-104433643D01*
X172005715Y-104100310D01*
X171815239Y-104100310D01*
X172434286Y-104528881D02*
X172434286Y-103528881D01*
X173005715Y-104528881D01*
X173005715Y-103528881D01*
X173481905Y-104528881D02*
X173481905Y-103528881D01*
X173720000Y-103528881D01*
X173862858Y-103576500D01*
X173958096Y-103671738D01*
X174005715Y-103766976D01*
X174053334Y-103957452D01*
X174053334Y-104100310D01*
X174005715Y-104290786D01*
X173958096Y-104386024D01*
X173862858Y-104481262D01*
X173720000Y-104528881D01*
X173481905Y-104528881D01*
X141100000Y-88520000D02*
X141100000Y-87520000D01*
X139400000Y-87520000D02*
X139400000Y-88520000D01*
X141110000Y-92360000D02*
X141110000Y-91360000D01*
X139410000Y-91360000D02*
X139410000Y-92360000D01*
X141570000Y-102000000D02*
X141570000Y-102700000D01*
X140370000Y-102700000D02*
X140370000Y-102000000D01*
X168710000Y-87460000D02*
X168010000Y-87460000D01*
X168010000Y-86260000D02*
X168710000Y-86260000D01*
X165608000Y-102616000D02*
X163068000Y-102616000D01*
X168428000Y-102896000D02*
X166878000Y-102896000D01*
X165608000Y-102616000D02*
X165608000Y-100076000D01*
X166878000Y-99796000D02*
X168428000Y-99796000D01*
X168428000Y-99796000D02*
X168428000Y-102896000D01*
X165608000Y-100076000D02*
X163068000Y-100076000D01*
X163068000Y-100076000D02*
X163068000Y-102616000D01*
X171450000Y-100330000D02*
X171450000Y-87630000D01*
X171450000Y-87630000D02*
X173990000Y-87630000D01*
X173990000Y-87630000D02*
X173990000Y-100330000D01*
X171170000Y-103150000D02*
X171170000Y-101600000D01*
X171450000Y-100330000D02*
X173990000Y-100330000D01*
X174270000Y-101600000D02*
X174270000Y-103150000D01*
X174270000Y-103150000D02*
X171170000Y-103150000D01*
X164470000Y-91857500D02*
X165470000Y-91857500D01*
X165470000Y-93207500D02*
X164470000Y-93207500D01*
X164470000Y-89895000D02*
X165470000Y-89895000D01*
X165470000Y-91245000D02*
X164470000Y-91245000D01*
X164470000Y-93820000D02*
X165470000Y-93820000D01*
X165470000Y-95170000D02*
X164470000Y-95170000D01*
X164470000Y-97745000D02*
X165470000Y-97745000D01*
X165470000Y-99095000D02*
X164470000Y-99095000D01*
X164470000Y-95782500D02*
X165470000Y-95782500D01*
X165470000Y-97132500D02*
X164470000Y-97132500D01*
X135476000Y-93496000D02*
X138524000Y-93496000D01*
X138524000Y-93496000D02*
X138524000Y-86384000D01*
X138524000Y-86384000D02*
X135476000Y-86384000D01*
X132428000Y-93496000D02*
X131666000Y-93496000D01*
X131666000Y-93496000D02*
X129380000Y-91972000D01*
X129380000Y-91972000D02*
X129380000Y-87908000D01*
X129380000Y-87908000D02*
X131666000Y-86384000D01*
X131666000Y-86384000D02*
X132428000Y-86384000D01*
X124400000Y-96060000D02*
X123800000Y-95780000D01*
X129400000Y-103560000D02*
X129400000Y-96060000D01*
X129400000Y-103560000D02*
X124400000Y-103560000D01*
X125100000Y-96060000D02*
X125100000Y-103560000D01*
X129400000Y-96060000D02*
X124400000Y-96060000D01*
X124400000Y-96060000D02*
X124400000Y-103560000D01*
X124400000Y-103560000D02*
X123800000Y-103840000D01*
X140133334Y-85907143D02*
X140085715Y-85954762D01*
X139942858Y-86002381D01*
X139847620Y-86002381D01*
X139704762Y-85954762D01*
X139609524Y-85859524D01*
X139561905Y-85764286D01*
X139514286Y-85573810D01*
X139514286Y-85430952D01*
X139561905Y-85240476D01*
X139609524Y-85145238D01*
X139704762Y-85050000D01*
X139847620Y-85002381D01*
X139942858Y-85002381D01*
X140085715Y-85050000D01*
X140133334Y-85097619D01*
X141085715Y-86002381D02*
X140514286Y-86002381D01*
X140800000Y-86002381D02*
X140800000Y-85002381D01*
X140704762Y-85145238D01*
X140609524Y-85240476D01*
X140514286Y-85288095D01*
X140133334Y-94757143D02*
X140085715Y-94804762D01*
X139942858Y-94852381D01*
X139847620Y-94852381D01*
X139704762Y-94804762D01*
X139609524Y-94709524D01*
X139561905Y-94614286D01*
X139514286Y-94423810D01*
X139514286Y-94280952D01*
X139561905Y-94090476D01*
X139609524Y-93995238D01*
X139704762Y-93900000D01*
X139847620Y-93852381D01*
X139942858Y-93852381D01*
X140085715Y-93900000D01*
X140133334Y-93947619D01*
X140514286Y-93947619D02*
X140561905Y-93900000D01*
X140657143Y-93852381D01*
X140895239Y-93852381D01*
X140990477Y-93900000D01*
X141038096Y-93947619D01*
X141085715Y-94042857D01*
X141085715Y-94138095D01*
X141038096Y-94280952D01*
X140466667Y-94852381D01*
X141085715Y-94852381D01*
X140803334Y-100560143D02*
X140755715Y-100607762D01*
X140612858Y-100655381D01*
X140517620Y-100655381D01*
X140374762Y-100607762D01*
X140279524Y-100512524D01*
X140231905Y-100417286D01*
X140184286Y-100226810D01*
X140184286Y-100083952D01*
X140231905Y-99893476D01*
X140279524Y-99798238D01*
X140374762Y-99703000D01*
X140517620Y-99655381D01*
X140612858Y-99655381D01*
X140755715Y-99703000D01*
X140803334Y-99750619D01*
X141136667Y-99655381D02*
X141755715Y-99655381D01*
X141422381Y-100036333D01*
X141565239Y-100036333D01*
X141660477Y-100083952D01*
X141708096Y-100131571D01*
X141755715Y-100226810D01*
X141755715Y-100464905D01*
X141708096Y-100560143D01*
X141660477Y-100607762D01*
X141565239Y-100655381D01*
X141279524Y-100655381D01*
X141184286Y-100607762D01*
X141136667Y-100560143D01*
X165695334Y-87225143D02*
X165647715Y-87272762D01*
X165504858Y-87320381D01*
X165409620Y-87320381D01*
X165266762Y-87272762D01*
X165171524Y-87177524D01*
X165123905Y-87082286D01*
X165076286Y-86891810D01*
X165076286Y-86748952D01*
X165123905Y-86558476D01*
X165171524Y-86463238D01*
X165266762Y-86368000D01*
X165409620Y-86320381D01*
X165504858Y-86320381D01*
X165647715Y-86368000D01*
X165695334Y-86415619D01*
X166552477Y-86653714D02*
X166552477Y-87320381D01*
X166314381Y-86272762D02*
X166076286Y-86987048D01*
X166695334Y-86987048D01*
X163822286Y-104211381D02*
X163822286Y-103211381D01*
X164203239Y-103211381D01*
X164298477Y-103259000D01*
X164346096Y-103306619D01*
X164393715Y-103401857D01*
X164393715Y-103544714D01*
X164346096Y-103639952D01*
X164298477Y-103687571D01*
X164203239Y-103735190D01*
X163822286Y-103735190D01*
X165393715Y-104211381D02*
X165060381Y-103735190D01*
X164822286Y-104211381D02*
X164822286Y-103211381D01*
X165203239Y-103211381D01*
X165298477Y-103259000D01*
X165346096Y-103306619D01*
X165393715Y-103401857D01*
X165393715Y-103544714D01*
X165346096Y-103639952D01*
X165298477Y-103687571D01*
X165203239Y-103735190D01*
X164822286Y-103735190D01*
X166012762Y-103211381D02*
X166203239Y-103211381D01*
X166298477Y-103259000D01*
X166393715Y-103354238D01*
X166441334Y-103544714D01*
X166441334Y-103878048D01*
X166393715Y-104068524D01*
X166298477Y-104163762D01*
X166203239Y-104211381D01*
X166012762Y-104211381D01*
X165917524Y-104163762D01*
X165822286Y-104068524D01*
X165774667Y-103878048D01*
X165774667Y-103544714D01*
X165822286Y-103354238D01*
X165917524Y-103259000D01*
X166012762Y-103211381D01*
X167393715Y-103259000D02*
X167298477Y-103211381D01*
X167155620Y-103211381D01*
X167012762Y-103259000D01*
X166917524Y-103354238D01*
X166869905Y-103449476D01*
X166822286Y-103639952D01*
X166822286Y-103782810D01*
X166869905Y-103973286D01*
X166917524Y-104068524D01*
X167012762Y-104163762D01*
X167155620Y-104211381D01*
X167250858Y-104211381D01*
X167393715Y-104163762D01*
X167441334Y-104116143D01*
X167441334Y-103782810D01*
X167250858Y-103782810D01*
X170299071Y-96162690D02*
X170299071Y-96496024D01*
X170822881Y-96496024D02*
X169822881Y-96496024D01*
X169822881Y-96019833D01*
X169822881Y-95781738D02*
X169822881Y-95210309D01*
X170822881Y-95496024D02*
X169822881Y-95496024D01*
X170822881Y-94876976D02*
X169822881Y-94876976D01*
X169822881Y-94638881D01*
X169870500Y-94496023D01*
X169965738Y-94400785D01*
X170060976Y-94353166D01*
X170251452Y-94305547D01*
X170394310Y-94305547D01*
X170584786Y-94353166D01*
X170680024Y-94400785D01*
X170775262Y-94496023D01*
X170822881Y-94638881D01*
X170822881Y-94876976D01*
X170822881Y-93876976D02*
X169822881Y-93876976D01*
X167343334Y-92984881D02*
X167010000Y-92508690D01*
X166771905Y-92984881D02*
X166771905Y-91984881D01*
X167152858Y-91984881D01*
X167248096Y-92032500D01*
X167295715Y-92080119D01*
X167343334Y-92175357D01*
X167343334Y-92318214D01*
X167295715Y-92413452D01*
X167248096Y-92461071D01*
X167152858Y-92508690D01*
X166771905Y-92508690D01*
X168295715Y-92984881D02*
X167724286Y-92984881D01*
X168010000Y-92984881D02*
X168010000Y-91984881D01*
X167914762Y-92127738D01*
X167819524Y-92222976D01*
X167724286Y-92270595D01*
X167343334Y-91022381D02*
X167010000Y-90546190D01*
X166771905Y-91022381D02*
X166771905Y-90022381D01*
X167152858Y-90022381D01*
X167248096Y-90070000D01*
X167295715Y-90117619D01*
X167343334Y-90212857D01*
X167343334Y-90355714D01*
X167295715Y-90450952D01*
X167248096Y-90498571D01*
X167152858Y-90546190D01*
X166771905Y-90546190D01*
X167724286Y-90117619D02*
X167771905Y-90070000D01*
X167867143Y-90022381D01*
X168105239Y-90022381D01*
X168200477Y-90070000D01*
X168248096Y-90117619D01*
X168295715Y-90212857D01*
X168295715Y-90308095D01*
X168248096Y-90450952D01*
X167676667Y-91022381D01*
X168295715Y-91022381D01*
X167343334Y-94947381D02*
X167010000Y-94471190D01*
X166771905Y-94947381D02*
X166771905Y-93947381D01*
X167152858Y-93947381D01*
X167248096Y-93995000D01*
X167295715Y-94042619D01*
X167343334Y-94137857D01*
X167343334Y-94280714D01*
X167295715Y-94375952D01*
X167248096Y-94423571D01*
X167152858Y-94471190D01*
X166771905Y-94471190D01*
X167676667Y-93947381D02*
X168295715Y-93947381D01*
X167962381Y-94328333D01*
X168105239Y-94328333D01*
X168200477Y-94375952D01*
X168248096Y-94423571D01*
X168295715Y-94518810D01*
X168295715Y-94756905D01*
X168248096Y-94852143D01*
X168200477Y-94899762D01*
X168105239Y-94947381D01*
X167819524Y-94947381D01*
X167724286Y-94899762D01*
X167676667Y-94852143D01*
X167343334Y-98872381D02*
X167010000Y-98396190D01*
X166771905Y-98872381D02*
X166771905Y-97872381D01*
X167152858Y-97872381D01*
X167248096Y-97920000D01*
X167295715Y-97967619D01*
X167343334Y-98062857D01*
X167343334Y-98205714D01*
X167295715Y-98300952D01*
X167248096Y-98348571D01*
X167152858Y-98396190D01*
X166771905Y-98396190D01*
X168200477Y-98205714D02*
X168200477Y-98872381D01*
X167962381Y-97824762D02*
X167724286Y-98539048D01*
X168343334Y-98539048D01*
X167343334Y-96909881D02*
X167010000Y-96433690D01*
X166771905Y-96909881D02*
X166771905Y-95909881D01*
X167152858Y-95909881D01*
X167248096Y-95957500D01*
X167295715Y-96005119D01*
X167343334Y-96100357D01*
X167343334Y-96243214D01*
X167295715Y-96338452D01*
X167248096Y-96386071D01*
X167152858Y-96433690D01*
X166771905Y-96433690D01*
X168248096Y-95909881D02*
X167771905Y-95909881D01*
X167724286Y-96386071D01*
X167771905Y-96338452D01*
X167867143Y-96290833D01*
X168105239Y-96290833D01*
X168200477Y-96338452D01*
X168248096Y-96386071D01*
X168295715Y-96481310D01*
X168295715Y-96719405D01*
X168248096Y-96814643D01*
X168200477Y-96862262D01*
X168105239Y-96909881D01*
X167867143Y-96909881D01*
X167771905Y-96862262D01*
X167724286Y-96814643D01*
X134587619Y-104292381D02*
X134254285Y-103816190D01*
X134016190Y-104292381D02*
X134016190Y-103292381D01*
X134397143Y-103292381D01*
X134492381Y-103340000D01*
X134540000Y-103387619D01*
X134587619Y-103482857D01*
X134587619Y-103625714D01*
X134540000Y-103720952D01*
X134492381Y-103768571D01*
X134397143Y-103816190D01*
X134016190Y-103816190D01*
X135016190Y-103768571D02*
X135349524Y-103768571D01*
X135492381Y-104292381D02*
X135016190Y-104292381D01*
X135016190Y-103292381D01*
X135492381Y-103292381D01*
X135873333Y-104244762D02*
X136016190Y-104292381D01*
X136254286Y-104292381D01*
X136349524Y-104244762D01*
X136397143Y-104197143D01*
X136444762Y-104101905D01*
X136444762Y-104006667D01*
X136397143Y-103911429D01*
X136349524Y-103863810D01*
X136254286Y-103816190D01*
X136063809Y-103768571D01*
X135968571Y-103720952D01*
X135920952Y-103673333D01*
X135873333Y-103578095D01*
X135873333Y-103482857D01*
X135920952Y-103387619D01*
X135968571Y-103340000D01*
X136063809Y-103292381D01*
X136301905Y-103292381D01*
X136444762Y-103340000D01*
X136873333Y-103768571D02*
X137206667Y-103768571D01*
X137349524Y-104292381D02*
X136873333Y-104292381D01*
X136873333Y-103292381D01*
X137349524Y-103292381D01*
X137635238Y-103292381D02*
X138206667Y-103292381D01*
X137920952Y-104292381D02*
X137920952Y-103292381D01*
X132642381Y-90701905D02*
X133451905Y-90701905D01*
X133547143Y-90654286D01*
X133594762Y-90606667D01*
X133642381Y-90511429D01*
X133642381Y-90320952D01*
X133594762Y-90225714D01*
X133547143Y-90178095D01*
X133451905Y-90130476D01*
X132642381Y-90130476D01*
X133642381Y-89130476D02*
X133642381Y-89701905D01*
X133642381Y-89416191D02*
X132642381Y-89416191D01*
X132785238Y-89511429D01*
X132880476Y-89606667D01*
X132928095Y-89701905D01*
X151003095Y-90607381D02*
X151003095Y-91416905D01*
X151050714Y-91512143D01*
X151098333Y-91559762D01*
X151193571Y-91607381D01*
X151384048Y-91607381D01*
X151479286Y-91559762D01*
X151526905Y-91512143D01*
X151574524Y-91416905D01*
X151574524Y-90607381D01*
X152003095Y-90702619D02*
X152050714Y-90655000D01*
X152145952Y-90607381D01*
X152384048Y-90607381D01*
X152479286Y-90655000D01*
X152526905Y-90702619D01*
X152574524Y-90797857D01*
X152574524Y-90893095D01*
X152526905Y-91035952D01*
X151955476Y-91607381D01*
X152574524Y-91607381D01*
X129052381Y-103188095D02*
X128052381Y-103188095D01*
X128052381Y-102807142D01*
X128100000Y-102711904D01*
X128147619Y-102664285D01*
X128242857Y-102616666D01*
X128385714Y-102616666D01*
X128480952Y-102664285D01*
X128528571Y-102711904D01*
X128576190Y-102807142D01*
X128576190Y-103188095D01*
X129052381Y-101664285D02*
X129052381Y-102235714D01*
X129052381Y-101950000D02*
X128052381Y-101950000D01*
X128195238Y-102045238D01*
X128290476Y-102140476D01*
X128338095Y-102235714D01*
M02*
