G04 #@! TF.FileFunction,Copper,L1,Top,Signal*
%FSLAX46Y46*%
G04 Gerber Fmt 4.6, Leading zero omitted, Abs format (unit mm)*
G04 Created by KiCad (PCBNEW 4.0.0-rc2-1-stable) date Sunday, 29 November 2015 18:47:31*
%MOMM*%
G01*
G04 APERTURE LIST*
%ADD10C,0.100000*%
%ADD11R,1.250000X1.000000*%
%ADD12R,0.750000X0.800000*%
%ADD13R,0.800000X0.750000*%
%ADD14R,2.032000X2.032000*%
%ADD15O,2.032000X2.032000*%
%ADD16R,2.032000X1.727200*%
%ADD17O,2.032000X1.727200*%
%ADD18R,0.500000X0.900000*%
%ADD19R,0.600000X1.000000*%
%ADD20R,0.450000X1.000000*%
%ADD21R,2.032000X3.657600*%
%ADD22R,2.032000X1.016000*%
%ADD23R,2.400000X1.100000*%
%ADD24O,2.400000X1.100000*%
%ADD25C,2.032000*%
%ADD26C,3.100000*%
%ADD27R,1.400000X0.400000*%
%ADD28R,1.900000X1.800000*%
%ADD29R,1.900000X2.300000*%
%ADD30C,0.609600*%
%ADD31C,0.304800*%
%ADD32C,0.254000*%
G04 APERTURE END LIST*
D10*
D11*
X140250000Y-87020000D03*
X140250000Y-89020000D03*
X140260000Y-90860000D03*
X140260000Y-92860000D03*
D12*
X140970000Y-101600000D03*
X140970000Y-103100000D03*
D13*
X169110000Y-86860000D03*
X167610000Y-86860000D03*
D14*
X166878000Y-101346000D03*
D15*
X164338000Y-101346000D03*
D16*
X172720000Y-101600000D03*
D17*
X172720000Y-99060000D03*
X172720000Y-96520000D03*
X172720000Y-93980000D03*
X172720000Y-91440000D03*
X172720000Y-88900000D03*
D18*
X165720000Y-92532500D03*
X164220000Y-92532500D03*
X165720000Y-90570000D03*
X164220000Y-90570000D03*
X165720000Y-94495000D03*
X164220000Y-94495000D03*
X165720000Y-98420000D03*
X164220000Y-98420000D03*
X165720000Y-96457500D03*
X164220000Y-96457500D03*
D19*
X134200000Y-97490000D03*
X137900000Y-97490000D03*
X134200000Y-101890000D03*
X137900000Y-101890000D03*
D20*
X133525000Y-99690000D03*
X138575000Y-99690000D03*
D21*
X130650000Y-89940000D03*
D22*
X137254000Y-89940000D03*
X137254000Y-87654000D03*
X137254000Y-92226000D03*
D23*
X143510000Y-87980000D03*
D24*
X143510000Y-89980000D03*
X143510000Y-91980000D03*
X143510000Y-93980000D03*
X143510000Y-95980000D03*
X143510000Y-97980000D03*
X143510000Y-99980000D03*
X143510000Y-101980000D03*
X159510000Y-101980000D03*
X159510000Y-99980000D03*
X159510000Y-97980000D03*
X159510000Y-95980000D03*
X159510000Y-93980000D03*
X159510000Y-91980000D03*
X159510000Y-89980000D03*
X159510000Y-87980000D03*
D25*
X127000000Y-109220000D03*
X129540000Y-109220000D03*
X132080000Y-109220000D03*
X134620000Y-109220000D03*
X137160000Y-109220000D03*
X139700000Y-109220000D03*
X142240000Y-109220000D03*
X144780000Y-109220000D03*
X147320000Y-109220000D03*
X149860000Y-109220000D03*
X152400000Y-109220000D03*
X154940000Y-109220000D03*
X157480000Y-109220000D03*
X160020000Y-109220000D03*
X162560000Y-109220000D03*
X165100000Y-109220000D03*
X167640000Y-109220000D03*
X170180000Y-109220000D03*
X172720000Y-109220000D03*
X127000000Y-111760000D03*
X129540000Y-111760000D03*
X132080000Y-111760000D03*
X134620000Y-111760000D03*
X137160000Y-111760000D03*
X139700000Y-111760000D03*
X142240000Y-111760000D03*
X144780000Y-111760000D03*
X147320000Y-111760000D03*
X149860000Y-111760000D03*
X152400000Y-111760000D03*
X154940000Y-111760000D03*
X157480000Y-111760000D03*
X160020000Y-111760000D03*
X162560000Y-111760000D03*
X165100000Y-111760000D03*
X167640000Y-111760000D03*
X170180000Y-111760000D03*
X172720000Y-111760000D03*
X127000000Y-114300000D03*
X129540000Y-114300000D03*
X132080000Y-114300000D03*
X134620000Y-114300000D03*
X137160000Y-114300000D03*
X139700000Y-114300000D03*
X142240000Y-114300000D03*
X144780000Y-114300000D03*
X147320000Y-114300000D03*
X149860000Y-114300000D03*
X152400000Y-114300000D03*
X154940000Y-114300000D03*
X157480000Y-114300000D03*
X160020000Y-114300000D03*
X162560000Y-114300000D03*
X165100000Y-114300000D03*
X167640000Y-114300000D03*
X170180000Y-114300000D03*
X172720000Y-114300000D03*
X127000000Y-116840000D03*
X129540000Y-116840000D03*
X132080000Y-116840000D03*
X134620000Y-116840000D03*
X137160000Y-116840000D03*
X139700000Y-116840000D03*
X142240000Y-116840000D03*
X144780000Y-116840000D03*
X147320000Y-116840000D03*
X149860000Y-116840000D03*
X152400000Y-116840000D03*
X154940000Y-116840000D03*
X157480000Y-116840000D03*
X160020000Y-116840000D03*
X162560000Y-116840000D03*
X165100000Y-116840000D03*
X167640000Y-116840000D03*
X170180000Y-116840000D03*
X172720000Y-116840000D03*
X127000000Y-119380000D03*
X129540000Y-119380000D03*
X132080000Y-119380000D03*
X134620000Y-119380000D03*
X137160000Y-119380000D03*
X139700000Y-119380000D03*
X142240000Y-119380000D03*
X144780000Y-119380000D03*
X147320000Y-119380000D03*
X149860000Y-119380000D03*
X152400000Y-119380000D03*
X154940000Y-119380000D03*
X157480000Y-119380000D03*
X160020000Y-119380000D03*
X162560000Y-119380000D03*
X165100000Y-119380000D03*
X167640000Y-119380000D03*
X170180000Y-119380000D03*
X172720000Y-119380000D03*
X127000000Y-121920000D03*
X129540000Y-121920000D03*
X132080000Y-121920000D03*
X134620000Y-121920000D03*
X137160000Y-121920000D03*
X139700000Y-121920000D03*
X142240000Y-121920000D03*
X144780000Y-121920000D03*
X147320000Y-121920000D03*
X149860000Y-121920000D03*
X152400000Y-121920000D03*
X154940000Y-121920000D03*
X157480000Y-121920000D03*
X160020000Y-121920000D03*
X162560000Y-121920000D03*
X165100000Y-121920000D03*
X167640000Y-121920000D03*
X170180000Y-121920000D03*
X172720000Y-121920000D03*
X132080000Y-124460000D03*
X134620000Y-124460000D03*
X137160000Y-124460000D03*
X139700000Y-124460000D03*
X142240000Y-124460000D03*
X144780000Y-124460000D03*
X147320000Y-124460000D03*
X149860000Y-124460000D03*
X152400000Y-124460000D03*
X154940000Y-124460000D03*
X157480000Y-124460000D03*
X160020000Y-124460000D03*
X162560000Y-124460000D03*
X165100000Y-124460000D03*
X167640000Y-124460000D03*
X132080000Y-127000000D03*
X134620000Y-127000000D03*
X137160000Y-127000000D03*
X139700000Y-127000000D03*
X142240000Y-127000000D03*
X144780000Y-127000000D03*
X147320000Y-127000000D03*
X149860000Y-127000000D03*
X152400000Y-127000000D03*
X154940000Y-127000000D03*
X157480000Y-127000000D03*
X160020000Y-127000000D03*
X162560000Y-127000000D03*
X165100000Y-127000000D03*
X167640000Y-127000000D03*
D26*
X171450000Y-125730000D03*
X128270000Y-125730000D03*
X171450000Y-82550000D03*
X128270000Y-82550000D03*
D25*
X172720000Y-106680000D03*
X170180000Y-106680000D03*
X167640000Y-106680000D03*
X165100000Y-106680000D03*
X162560000Y-106680000D03*
X160020000Y-106680000D03*
X157480000Y-106680000D03*
X154940000Y-106680000D03*
X152400000Y-106680000D03*
X149860000Y-106680000D03*
X147320000Y-106680000D03*
X144780000Y-106680000D03*
X142240000Y-106680000D03*
X139700000Y-106680000D03*
X137160000Y-106680000D03*
X134620000Y-106680000D03*
X132080000Y-106680000D03*
X129540000Y-106680000D03*
X127000000Y-106680000D03*
D27*
X129400000Y-101110000D03*
X129400000Y-100460000D03*
X129400000Y-99810000D03*
X129400000Y-99160000D03*
X129400000Y-98510000D03*
D28*
X126550000Y-98660000D03*
X126550000Y-100960000D03*
D29*
X126550000Y-103560000D03*
X126550000Y-96060000D03*
D30*
X131082000Y-98522000D03*
X136250000Y-88550000D03*
X130950000Y-100800000D03*
X138540000Y-93630000D03*
X138780000Y-88880000D03*
X136906278Y-98100000D03*
X161607500Y-102489000D03*
X142105808Y-103299530D03*
X149352000Y-102362000D03*
X144995828Y-101386544D03*
X165470000Y-88850000D03*
X134780000Y-98920000D03*
X146367500Y-87820500D03*
X142231220Y-93218000D03*
X161671000Y-89217500D03*
X162596192Y-89928221D03*
X146512908Y-93822908D03*
X162930000Y-91520000D03*
D31*
X131386799Y-98826799D02*
X131082000Y-98522000D01*
X127000000Y-106680000D02*
X131811201Y-101868799D01*
X131811201Y-99251201D02*
X131386799Y-98826799D01*
X131811201Y-101868799D02*
X131811201Y-99251201D01*
X131082000Y-98522000D02*
X129723000Y-98522000D01*
X137254000Y-87654000D02*
X137146000Y-87654000D01*
X137146000Y-87654000D02*
X136250000Y-88550000D01*
X137254000Y-87654000D02*
X139616000Y-87654000D01*
X139616000Y-87654000D02*
X140250000Y-87020000D01*
X137254000Y-87654000D02*
X137254000Y-87736000D01*
X137254000Y-87654000D02*
X137076000Y-87654000D01*
X130628000Y-101122000D02*
X130645201Y-101104799D01*
X130645201Y-101104799D02*
X130950000Y-100800000D01*
X129723000Y-101122000D02*
X130628000Y-101122000D01*
X140260000Y-92860000D02*
X139310000Y-92860000D01*
X139310000Y-92860000D02*
X138540000Y-93630000D01*
X140250000Y-89020000D02*
X138920000Y-89020000D01*
X138920000Y-89020000D02*
X138780000Y-88880000D01*
X137254000Y-92226000D02*
X138636000Y-92226000D01*
X138636000Y-92226000D02*
X139270000Y-92860000D01*
X139270000Y-92860000D02*
X140260000Y-92860000D01*
X137900000Y-97490000D02*
X137516278Y-97490000D01*
X137516278Y-97490000D02*
X136906278Y-98100000D01*
X137254000Y-92226000D02*
X137762000Y-92226000D01*
X139920000Y-92870000D02*
X139790000Y-92870000D01*
X165720000Y-98420000D02*
X166274800Y-98420000D01*
X166274800Y-98420000D02*
X166878000Y-99023200D01*
X166878000Y-99023200D02*
X166878000Y-100025200D01*
X166878000Y-100025200D02*
X166878000Y-101346000D01*
X159510000Y-101980000D02*
X161098500Y-101980000D01*
X161098500Y-101980000D02*
X161607500Y-102489000D01*
X167322500Y-101600000D02*
X166878000Y-101155500D01*
X141906278Y-103100000D02*
X142105808Y-103299530D01*
X140970000Y-103100000D02*
X141906278Y-103100000D01*
X137900000Y-97490000D02*
X137900000Y-97690000D01*
X137900000Y-97690000D02*
X137900000Y-101890000D01*
X159490000Y-102000000D02*
X159510000Y-101980000D01*
X165720000Y-98620000D02*
X165720000Y-98420000D01*
X172720000Y-106680000D02*
X172720000Y-106527600D01*
X172720000Y-101600000D02*
X172567600Y-101600000D01*
X140260000Y-90860000D02*
X141189800Y-90860000D01*
X141189800Y-90860000D02*
X141500000Y-91170200D01*
X141500000Y-91170200D02*
X141500000Y-100365200D01*
X141500000Y-100365200D02*
X140970000Y-100895200D01*
X140970000Y-100895200D02*
X140970000Y-101600000D01*
X137254000Y-89940000D02*
X138470000Y-89940000D01*
X139390000Y-90860000D02*
X140260000Y-90860000D01*
X138470000Y-89940000D02*
X139390000Y-90860000D01*
X139920000Y-90870000D02*
X140045000Y-90870000D01*
X139920000Y-90870000D02*
X139795000Y-90870000D01*
X130650000Y-89940000D02*
X137254000Y-89940000D01*
X132080000Y-106680000D02*
X135089932Y-103670068D01*
X135089932Y-103670068D02*
X138220132Y-103670068D01*
X138220132Y-103670068D02*
X140290200Y-101600000D01*
X140290200Y-101600000D02*
X140970000Y-101600000D01*
X149860000Y-106680000D02*
X149860000Y-102870000D01*
X145122828Y-101871972D02*
X145122828Y-101513544D01*
X143510000Y-101980000D02*
X145014800Y-101980000D01*
X149860000Y-102870000D02*
X149656799Y-102666799D01*
X145122828Y-101513544D02*
X144995828Y-101386544D01*
X145014800Y-101980000D02*
X145122828Y-101871972D01*
X149656799Y-102666799D02*
X149352000Y-102362000D01*
X165720000Y-90570000D02*
X165720000Y-89100000D01*
X165720000Y-89100000D02*
X165470000Y-88850000D01*
X143510000Y-101980000D02*
X141350000Y-101980000D01*
X141350000Y-101980000D02*
X140970000Y-101600000D01*
X165720000Y-96457500D02*
X172657500Y-96457500D01*
X165720000Y-94495000D02*
X165720000Y-96457500D01*
X165720000Y-92532500D02*
X165720000Y-94495000D01*
X165720000Y-90570000D02*
X165720000Y-92532500D01*
X172657500Y-96457500D02*
X172720000Y-96520000D01*
D32*
X169110000Y-86860000D02*
X171797600Y-86860000D01*
X171797600Y-86860000D02*
X172720000Y-87782400D01*
X172720000Y-87782400D02*
X172720000Y-88900000D01*
X134200000Y-98340000D02*
X134475201Y-98615201D01*
X134475201Y-98615201D02*
X134780000Y-98920000D01*
X134200000Y-97490000D02*
X134200000Y-98340000D01*
X146367500Y-86860000D02*
X164210000Y-86860000D01*
X143826000Y-86860000D02*
X146367500Y-86860000D01*
X146367500Y-86860000D02*
X146367500Y-87820500D01*
X143510000Y-87980000D02*
X144160000Y-87980000D01*
X144160000Y-87980000D02*
X148221698Y-92041698D01*
X148221698Y-92041698D02*
X148221698Y-103238302D01*
X148221698Y-103238302D02*
X147320000Y-104140000D01*
X147320000Y-104140000D02*
X147320000Y-106680000D01*
X134200000Y-97490000D02*
X134200000Y-101890000D01*
X164210000Y-86860000D02*
X166956000Y-86860000D01*
X164220000Y-90570000D02*
X164220000Y-86870000D01*
X164220000Y-86870000D02*
X164210000Y-86860000D01*
X143510000Y-87980000D02*
X143510000Y-87176000D01*
X143510000Y-87176000D02*
X143826000Y-86860000D01*
X166956000Y-86860000D02*
X167610000Y-86860000D01*
X163855390Y-105282990D02*
X165100000Y-106527600D01*
X161881426Y-105282990D02*
X163855390Y-105282990D01*
X165100000Y-106527600D02*
X165100000Y-106680000D01*
X160992415Y-104393979D02*
X161881426Y-105282990D01*
X158520462Y-104393976D02*
X160992415Y-104393979D01*
X156912969Y-102786483D02*
X158520462Y-104393976D01*
X156912969Y-97927031D02*
X156912969Y-102786483D01*
X158860000Y-95980000D02*
X156912969Y-97927031D01*
X159510000Y-95980000D02*
X158860000Y-95980000D01*
X164195000Y-94495000D02*
X164220000Y-94495000D01*
X162710000Y-95980000D02*
X164195000Y-94495000D01*
X159510000Y-95980000D02*
X162710000Y-95980000D01*
X143510000Y-93980000D02*
X142993220Y-93980000D01*
X142993220Y-93980000D02*
X142536019Y-93522799D01*
X142536019Y-93522799D02*
X142231220Y-93218000D01*
X144687304Y-105282992D02*
X143637008Y-105282992D01*
X143128999Y-105791001D02*
X142240000Y-106680000D01*
X144160000Y-93980000D02*
X147205678Y-97025678D01*
X143637008Y-105282992D02*
X143128999Y-105791001D01*
X143510000Y-93980000D02*
X144160000Y-93980000D01*
X147205678Y-97025678D02*
X147205678Y-102764620D01*
X147205678Y-102764620D02*
X144687304Y-105282992D01*
X159510000Y-87980000D02*
X158860000Y-87980000D01*
X158860000Y-87980000D02*
X154813000Y-92027000D01*
X154813000Y-92027000D02*
X154813000Y-105283000D01*
X154813000Y-105283000D02*
X154940000Y-105410000D01*
X154940000Y-105410000D02*
X154940000Y-106680000D01*
X159510000Y-87980000D02*
X160160000Y-87980000D01*
X160160000Y-87980000D02*
X161397500Y-89217500D01*
X161397500Y-89217500D02*
X161671000Y-89217500D01*
X172567600Y-91440000D02*
X172720000Y-91440000D01*
X159510000Y-89980000D02*
X158860000Y-89980000D01*
X155388939Y-93451061D02*
X155388940Y-103417766D01*
X157480000Y-105508826D02*
X157480000Y-106680000D01*
X158860000Y-89980000D02*
X155388939Y-93451061D01*
X155388940Y-103417766D02*
X157480000Y-105508826D01*
X162596192Y-90359273D02*
X162596192Y-89928221D01*
X160972302Y-90792302D02*
X162163163Y-90792302D01*
X162163163Y-90792302D02*
X162596192Y-90359273D01*
X160160000Y-89980000D02*
X160972302Y-90792302D01*
X159510000Y-89980000D02*
X160160000Y-89980000D01*
X172567600Y-93980000D02*
X172720000Y-93980000D01*
X158902398Y-105409998D02*
X160020000Y-106527600D01*
X158099612Y-105409998D02*
X158902398Y-105409998D01*
X158860000Y-91980000D02*
X155896949Y-94943051D01*
X160020000Y-106527600D02*
X160020000Y-106680000D01*
X155896949Y-103207335D02*
X158099612Y-105409998D01*
X155896949Y-94943051D02*
X155896949Y-103207335D01*
X159510000Y-91980000D02*
X158860000Y-91980000D01*
X159610000Y-92080000D02*
X159510000Y-91980000D01*
X160781989Y-104901989D02*
X161671001Y-105791001D01*
X156404959Y-102996909D02*
X158310037Y-104901987D01*
X156404959Y-96435041D02*
X156404959Y-102996909D01*
X161671001Y-105791001D02*
X162560000Y-106680000D01*
X158860000Y-93980000D02*
X156404959Y-96435041D01*
X158310037Y-104901987D02*
X160781989Y-104901989D01*
X159510000Y-93980000D02*
X158860000Y-93980000D01*
X167640000Y-106527600D02*
X167640000Y-106680000D01*
X165841550Y-104729150D02*
X167640000Y-106527600D01*
X162046022Y-104729150D02*
X165841550Y-104729150D01*
X158730887Y-103885965D02*
X161202841Y-103885969D01*
X157420979Y-102576057D02*
X158730887Y-103885965D01*
X157420979Y-99419021D02*
X157420979Y-102576057D01*
X158860000Y-97980000D02*
X157420979Y-99419021D01*
X161202841Y-103885969D02*
X162046022Y-104729150D01*
X159510000Y-97980000D02*
X158860000Y-97980000D01*
X161580000Y-97980000D02*
X162897500Y-97980000D01*
X159510000Y-97980000D02*
X161580000Y-97980000D01*
X162897500Y-97980000D02*
X164220000Y-96657500D01*
X164220000Y-96657500D02*
X164220000Y-96457500D01*
X167852400Y-104200000D02*
X170180000Y-106527600D01*
X162235308Y-104200000D02*
X167852400Y-104200000D01*
X161413267Y-103377959D02*
X162235308Y-104200000D01*
X158941313Y-103377955D02*
X161413267Y-103377959D01*
X170180000Y-106527600D02*
X170180000Y-106680000D01*
X157928990Y-102365632D02*
X158941313Y-103377955D01*
X157928990Y-100960510D02*
X157928990Y-102365632D01*
X158909500Y-99980000D02*
X157928990Y-100960510D01*
X159510000Y-99980000D02*
X158909500Y-99980000D01*
X159510000Y-99980000D02*
X162860000Y-99980000D01*
X162860000Y-99980000D02*
X164220000Y-98620000D01*
X164220000Y-98620000D02*
X164220000Y-98420000D01*
X144046029Y-103758959D02*
X142875041Y-103758959D01*
X142875041Y-103758959D02*
X142430522Y-104203478D01*
X134620000Y-106527600D02*
X134620000Y-106680000D01*
X145681648Y-102123342D02*
X144046029Y-103758959D01*
X143510000Y-99980000D02*
X144964000Y-99980000D01*
X144964000Y-99980000D02*
X145681648Y-100697648D01*
X145681648Y-100697648D02*
X145681648Y-102123342D01*
X142430522Y-104203478D02*
X136944122Y-104203478D01*
X136944122Y-104203478D02*
X134620000Y-106527600D01*
X138976111Y-104711489D02*
X137160000Y-106527600D01*
X143216156Y-104266972D02*
X142771639Y-104711489D01*
X142771639Y-104711489D02*
X138976111Y-104711489D01*
X146189658Y-102343768D02*
X144266454Y-104266970D01*
X137160000Y-106527600D02*
X137160000Y-106680000D01*
X144160000Y-97980000D02*
X146189658Y-100009658D01*
X144266454Y-104266970D02*
X143216156Y-104266972D01*
X146189658Y-100009658D02*
X146189658Y-102343768D01*
X143510000Y-97980000D02*
X144160000Y-97980000D01*
X139700000Y-106527600D02*
X139700000Y-106680000D01*
X143426582Y-104774982D02*
X142982064Y-105219500D01*
X146697668Y-102554194D02*
X144476879Y-104774981D01*
X146697668Y-98517668D02*
X146697668Y-102554194D01*
X141008100Y-105219500D02*
X139700000Y-106527600D01*
X142982064Y-105219500D02*
X141008100Y-105219500D01*
X144476879Y-104774981D02*
X143426582Y-104774982D01*
X144160000Y-95980000D02*
X146697668Y-98517668D01*
X143510000Y-95980000D02*
X144160000Y-95980000D01*
X147713687Y-93533687D02*
X147713687Y-102984313D01*
X144160000Y-89980000D02*
X147713687Y-93533687D01*
X143510000Y-89980000D02*
X144160000Y-89980000D01*
X147713687Y-102984313D02*
X144780000Y-105918000D01*
X144780000Y-105918000D02*
X144780000Y-106680000D01*
X143510000Y-91980000D02*
X144160000Y-91980000D01*
X144160000Y-91980000D02*
X146002908Y-93822908D01*
X146002908Y-93822908D02*
X146512908Y-93822908D01*
X162930000Y-91520000D02*
X163207500Y-91520000D01*
X163207500Y-91520000D02*
X164220000Y-92532500D01*
G36*
X127543000Y-104933000D02*
X125576000Y-104933000D01*
X125576000Y-94637000D01*
X127543000Y-94637000D01*
X127543000Y-104933000D01*
X127543000Y-104933000D01*
G37*
X127543000Y-104933000D02*
X125576000Y-104933000D01*
X125576000Y-94637000D01*
X127543000Y-94637000D01*
X127543000Y-104933000D01*
G36*
X135523000Y-95673000D02*
X128127000Y-95673000D01*
X128127000Y-94200000D01*
X128116994Y-94150590D01*
X128088553Y-94108965D01*
X128046159Y-94081685D01*
X128000000Y-94073000D01*
X125576000Y-94073000D01*
X125576000Y-85727000D01*
X135523000Y-85727000D01*
X135523000Y-95673000D01*
X135523000Y-95673000D01*
G37*
X135523000Y-95673000D02*
X128127000Y-95673000D01*
X128127000Y-94200000D01*
X128116994Y-94150590D01*
X128088553Y-94108965D01*
X128046159Y-94081685D01*
X128000000Y-94073000D01*
X125576000Y-94073000D01*
X125576000Y-85727000D01*
X135523000Y-85727000D01*
X135523000Y-95673000D01*
M02*
